<svg width="96" height="125" viewBox="0 0 96 125" fill="none" xmlns="http://www.w3.org/2000/svg">
<path d="M52.267 13.4298C51.537 13.3638 50.8 13.3248 50.053 13.3248C36.095 13.3248 24.879 25.0758 25.758 39.2228C26.511 51.3448 36.377 61.2108 48.499 61.9638C62.646 62.8428 74.397 51.6258 74.397 37.6688C74.397 37.6688 78.404 44.4418 78.404 48.9618L85.27 40.1088C85.27 40.1088 88.341 46.7898 87.437 51.8478C87.437 51.8478 91.412 47.1548 92.495 42.8148C92.495 42.8148 97.373 47.3338 95.566 59.6168L95.795 59.3338C92.559 73.5358 83.09 85.3628 70.418 91.7898L79.865 110.201H92.616V113.769L82.59 114.13L90.177 121.718L87.038 124.857L77.328 115.147L70.644 121.831L68.301 119.578L75.366 112.513L65.782 93.8348C60.415 95.8818 54.595 97.0118 48.508 97.0118C42.415 97.0118 36.59 95.8788 31.218 93.8288L21.629 112.511L28.694 119.576L26.351 121.829L19.667 115.145L9.957 124.855L6.81799 121.716L14.405 114.128L4.379 113.767V110.199H17.13L26.586 91.7708C10.811 83.7648 -0.00299938 67.4008 6.24033e-07 48.5008C0.00300062 21.6538 22.281 -0.332199 49.126 0.00380069C56.085 0.0908007 62.69 1.6438 68.648 4.3678C72.698 6.2598 76.188 8.6558 78.908 11.1908C83.101 15.0988 85.276 20.7078 84.942 26.4298L77.529 22.1318L77.072 30.0288C77.072 30.0288 63.776 28.3648 52.267 13.4298Z" fill="#DB7D3E"/>
<path d="M86.741 31.9638C86.741 33.9668 85.117 35.5898 83.115 35.5898C81.112 35.5898 79.489 33.9668 79.489 31.9638C79.489 29.9608 81.112 28.3378 83.115 28.3378C85.117 28.3378 86.741 29.9608 86.741 31.9638Z" fill="#DB7D3E"/>
</svg>
